<svg width="25" height="28" viewBox="0 0 25 28" fill="none" xmlns="http://www.w3.org/2000/svg">
<path d="M13.6189 23.8778C13.7098 24.4197 13.8847 24.9293 14.1362 25.392L8.14783 27.3776C7.5657 27.57 6.93737 27.5716 6.35423 27.3823C5.77109 27.193 5.26356 26.8226 4.90547 26.3249C4.66152 25.9853 4.49771 25.6018 4.41857 25.1849L3.23661 18.9578C3.69678 18.9228 4.14963 18.8226 4.58157 18.6601L7.44134 17.592C7.49685 18.235 7.7055 18.8553 8.04985 19.4011C8.3942 19.9469 8.86424 20.4024 9.42064 20.7293C9.97705 21.0563 10.6037 21.2453 11.2481 21.2805C11.8925 21.3157 12.5359 21.196 13.1246 20.9316L13.6189 23.8778Z" fill="url(#paint0_linear_112_4022)"/>
<path d="M24.0693 17.6573L20.2713 24.2358C20.0124 24.6841 19.6569 25.008 19.2149 25.1982C18.8046 25.3747 18.3456 25.4242 17.8872 25.3411C17.6714 25.3026 17.4619 25.2346 17.2646 25.139C17.0549 25.0373 16.8622 24.9036 16.6936 24.7425C16.6431 24.6942 16.5953 24.6438 16.5502 24.5914C16.285 24.2836 16.114 23.9075 16.0407 23.4714L15.3525 19.3682C15.2653 18.8451 15.3623 18.308 15.627 17.8484L17.7428 14.1835C17.9366 13.8477 18.0618 13.4767 18.1109 13.0921C18.16 12.7074 18.132 12.3169 18.0288 11.9432L17.6479 10.565C17.4436 9.82532 16.9566 9.19564 16.292 8.812C15.6274 8.42836 14.8386 8.32158 14.0959 8.51471L12.7121 8.87398C12.4063 8.95281 12.1154 9.081 11.8509 9.25352C11.7912 9.2924 11.7328 9.33357 11.6757 9.37705C11.367 9.61149 11.1082 9.9053 10.9147 10.2412L8.79874 13.9061C8.53328 14.3652 8.11658 14.7178 7.61989 14.9036L3.7224 16.3596C3.40236 16.4792 3.08436 16.5301 2.7724 16.5122C2.6107 16.5029 2.45058 16.4752 2.29513 16.4297C2.1858 16.3979 2.07909 16.3576 1.97595 16.3093C1.67499 16.1686 1.404 15.9602 1.17982 15.6954C1.14376 15.6528 1.10938 15.6093 1.07668 15.5648C0.836149 15.2383 0.686011 14.8644 0.640006 14.474C0.606184 14.1902 0.629671 13.9025 0.709076 13.6279C0.765063 13.4356 0.844401 13.2509 0.945318 13.0779L4.74346 6.49963C5.009 6.04056 5.4257 5.68794 5.92237 5.502L18.9857 0.623178C19.3139 0.500519 19.6537 0.454638 19.9955 0.486717C20.3237 0.518316 20.6412 0.619965 20.9267 0.784797C21.2122 0.949629 21.459 1.17381 21.6505 1.44219C21.8494 1.72195 21.9793 2.03938 22.0373 2.38498L24.3438 16.1375C24.4311 16.6606 24.3341 17.1977 24.0693 17.6573Z" fill="url(#paint1_linear_112_4022)"/>
<defs>
<linearGradient id="paint0_linear_112_4022" x1="7.83144" y1="5.27171" x2="19.8422" y2="26.2905" gradientUnits="userSpaceOnUse">
<stop stop-color="#106C88"/>
<stop offset="1" stop-color="#003C3C"/>
</linearGradient>
<linearGradient id="paint1_linear_112_4022" x1="7.83144" y1="5.27171" x2="19.8422" y2="26.2905" gradientUnits="userSpaceOnUse">
<stop stop-color="#106C88"/>
<stop offset="1" stop-color="#003C3C"/>
</linearGradient>
</defs>
</svg>
